<?xml version="1.0" encoding="utf-8"?>
<!-- Generator: Adobe Illustrator 20.1.0, SVG Export Plug-In . SVG Version: 6.00 Build 0)  -->
<svg version="1.1" id="Layer_1" xmlns="http://www.w3.org/2000/svg" xmlns:xlink="http://www.w3.org/1999/xlink" x="0px" y="0px"
	 viewBox="0 0 50 50" style="enable-background:new 0 0 50 50;" xml:space="preserve">
<style type="text/css">
	.st0{fill:#36C7CE;}
	.st1{fill:#51E5E5;}
	.st2{fill:#57F7F2;}
	.st3{fill:#2FB3C1;}
	.st4{opacity:0.5;}
	.st5{opacity:0.2;}
</style>
<path class="st0" d="M26.1,0.9l18.3,12.4c0.9,0.6,1.4,1.5,1.5,2.6l1.9,22"/>
<path class="st1" d="M23.9,0.9L5.6,13.3c-0.9,0.6-1.4,1.5-1.5,2.6L2.2,38"/>
<path class="st2" d="M26.7,1.5l20.9,35.6c0.7,1.3-0.2,2.8-1.7,2.8H4.1c-1.5,0-2.4-1.6-1.7-2.8L23.3,1.5C24.1,0.2,25.9,0.2,26.7,1.5z
	"/>
<path class="st3" d="M3.6,39.9l42.9-0.1l-19.9,9.6c-0.9,0.5-2,0.5-3,0L3.6,39.9"/>
<g class="st4">
	<path d="M18.7,29.1c0-2.2,1.3-3.7,3.4-4.6l0-0.1c-1.9-0.9-2.7-2.4-2.7-3.9c0-2.7,2.3-4.6,5.3-4.6c3.3,0,5,2.1,5,4.2
		c0,1.5-0.7,3-2.8,4v0.1c2.1,0.8,3.5,2.3,3.5,4.4c0,3-2.6,5-5.8,5C20.9,33.8,18.7,31.6,18.7,29.1z M28,29c0-2.1-1.5-3.1-3.8-3.7
		c-2,0.6-3.1,1.9-3.1,3.5c-0.1,1.7,1.2,3.3,3.4,3.3C26.6,32.1,28,30.8,28,29z M21.6,20.4c0,1.7,1.3,2.6,3.3,3.2
		c1.5-0.5,2.6-1.6,2.6-3.1c0-1.4-0.8-2.8-2.9-2.8C22.6,17.7,21.6,19,21.6,20.4z"/>
</g>
<g class="st5">
	<path d="M12.2,18.3l-1.7-1l-1.7,2.8l-0.5-0.3l-2.3-5l0.5-0.9l3.8,2.2l0.5-0.8l0.6,0.4L11,16.5l1.7,1L12.2,18.3z M9.9,16.9l-2-1.2
		c-0.3-0.2-0.6-0.4-0.9-0.6l0,0c0.2,0.4,0.4,0.7,0.6,1l1.2,2.7l0,0L9.9,16.9z"/>
</g>
<g class="st5">
	<path d="M22.9,47l2.7,0l0.3-1.8c-0.2,0-0.3,0-0.6,0c-0.5,0-1.1-0.1-1.5-0.4c-0.6-0.3-1-0.9-1-1.8c0-1.4,1.1-2.4,2.7-2.4
		c0.8,0,1.4,0.2,1.8,0.5L27,41.9c-0.3-0.2-0.9-0.4-1.5-0.4c-0.9,0-1.7,0.6-1.7,1.5c0,0.9,0.6,1.6,2,1.6c0.4,0,0.7,0,1-0.1l-0.5,3.4
		l-3.4,0L22.9,47z"/>
</g>
<g class="st5">
	<path d="M43.2,15.6L43.2,15.6l-1.2-0.8l0.5-0.5l1.5,0.9l0.4,0.7l-6.1,3.5l-0.5-0.8L43.2,15.6z"/>
</g>
</svg>
