<?xml version="1.0" encoding="utf-8"?>
<!-- Generator: Adobe Illustrator 20.1.0, SVG Export Plug-In . SVG Version: 6.00 Build 0)  -->
<svg version="1.1" id="Layer_1" xmlns="http://www.w3.org/2000/svg" xmlns:xlink="http://www.w3.org/1999/xlink" x="0px" y="0px"
	 viewBox="0 0 50 50" style="enable-background:new 0 0 50 50;" xml:space="preserve">
<style type="text/css">
	.st0{fill:#F94161;}
	.st1{fill:#EF374E;}
	.st2{fill:#E0324F;}
	.st3{fill:#D33154;}
	.st4{fill:#C63058;}
	.st5{fill:#C12D53;}
</style>
<polygon class="st0" points="25,9.7 38.2,32.6 11.8,32.6 "/>
<polygon class="st1" points="46.6,12.5 38.2,32.6 25,9.7 "/>
<polygon class="st2" points="25,49.9 11.8,32.6 38.2,32.6 "/>
<polygon class="st1" points="3.4,12.5 25,9.7 11.8,32.6 "/>
<polygon class="st2" points="3.4,12.5 25.2,0.3 25,9.7 "/>
<polygon class="st3" points="25.2,0.3 25,9.7 46.6,12.5 "/>
<polygon class="st3" points="25.2,49.8 3.4,37.4 11.9,32.6 "/>
<polygon class="st2" points="3.4,37.4 11.9,32.6 3.4,12.5 "/>
<polygon class="st4" points="46.6,12.5 46.6,37.4 38.2,32.6 "/>
<polygon class="st5" points="46.6,37.4 38.2,32.6 25,49.9 "/>
</svg>
