<?xml version="1.0" encoding="utf-8"?>
<!-- Generator: Adobe Illustrator 20.1.0, SVG Export Plug-In . SVG Version: 6.00 Build 0)  -->
<svg version="1.1" id="Layer_1" xmlns="http://www.w3.org/2000/svg" xmlns:xlink="http://www.w3.org/1999/xlink" x="0px" y="0px"
	 viewBox="0 0 50 50" style="enable-background:new 0 0 50 50;" xml:space="preserve">
<style type="text/css">
	.st0{fill:#9C5ED3;}
	.st1{fill:#510693;}
</style>
<path class="st0" d="M26.8,4.6l22.8,38.8c0.8,1.4-0.2,3.1-1.8,3.1H2.2c-1.6,0-2.6-1.7-1.8-3.1L23.2,4.6C24,3.2,26,3.2,26.8,4.6z"/>
<g>
	<path class="st1" d="M25.8,41.7h-4.2v-1.4l3.9-6.4h1.6v6.6h1.4v1.2h-1.4v2.2h-1.3V41.7z M25.8,35.5L25.8,35.5l-3.1,5h3.1V35.5z"/>
</g>
<g>
	<path class="st1" d="M16.8,22.7l1.3,5.4c0,0.2,0.1,0.4,0.2,0.6s0.1,0.4,0.2,0.5c0.1,0.2,0.2,0.3,0.3,0.5c0.1,0.1,0.3,0.3,0.5,0.4
		c0.2,0.1,0.4,0.2,0.6,0.2c0.2,0,0.4,0,0.6-0.1c0.2-0.1,0.4-0.2,0.6-0.3c0.2-0.1,0.3-0.3,0.4-0.5c0.2-0.4,0.3-0.8,0.3-1.2
		s-0.3-0.8-0.7-1.1l0.9-1.2c0.3,0.3,0.6,0.6,0.8,0.9c0.2,0.3,0.3,0.7,0.3,1c0,0.4,0,0.7-0.1,1.1c-0.1,0.4-0.3,0.7-0.5,1.1
		s-0.5,0.7-0.8,0.9c-0.3,0.3-0.6,0.5-1,0.6s-0.7,0.2-1.1,0.1c-0.4,0-0.8-0.2-1.2-0.4c-0.3-0.2-0.5-0.4-0.7-0.6
		c-0.2-0.2-0.4-0.5-0.5-0.7c-0.1-0.3-0.2-0.5-0.3-0.8c-0.1-0.3-0.2-0.6-0.2-0.9l-1-4.4l-2.6,4.3l-1-0.6l3.3-5.6L16.8,22.7z"/>
</g>
<g>
	<path class="st1" d="M30,29.1l2.4,0.7L32,31l-3.4-1.2l-0.6-1l8.5-5.1l0.7,1.2L30,29.1z"/>
</g>
</svg>
