<?xml version="1.0" encoding="utf-8"?>
<!-- Generator: Adobe Illustrator 20.1.0, SVG Export Plug-In . SVG Version: 6.00 Build 0)  -->
<svg version="1.1" id="Layer_1" xmlns="http://www.w3.org/2000/svg" xmlns:xlink="http://www.w3.org/1999/xlink" x="0px" y="0px"
	 viewBox="0 0 50 50" style="enable-background:new 0 0 50 50;" xml:space="preserve">
<style type="text/css">
	.st0{fill:#36C7CE;}
	.st1{fill:#51E5E5;}
	.st2{fill:#57F7F2;}
	.st3{fill:#2FB3C1;}
</style>
<path class="st0" d="M26.1,0.9l18.3,12.4c0.9,0.6,1.4,1.5,1.5,2.6l1.9,22"/>
<path class="st1" d="M23.9,0.9L5.6,13.3c-0.9,0.6-1.4,1.5-1.5,2.6L2.2,38"/>
<path class="st2" d="M26.7,1.5l20.9,35.6c0.7,1.3-0.2,2.8-1.7,2.8H4.1c-1.5,0-2.4-1.6-1.7-2.8L23.3,1.5C24.1,0.2,25.9,0.2,26.7,1.5z
	"/>
<path class="st3" d="M3.6,39.9l42.9-0.1l-19.9,9.6c-0.9,0.5-2,0.5-3,0L3.6,39.9"/>
</svg>
