<?xml version="1.0" encoding="utf-8"?>
<!-- Generator: Adobe Illustrator 20.1.0, SVG Export Plug-In . SVG Version: 6.00 Build 0)  -->
<svg version="1.1" id="Layer_1" xmlns="http://www.w3.org/2000/svg" xmlns:xlink="http://www.w3.org/1999/xlink" x="0px" y="0px"
	 viewBox="0 0 50 50" style="enable-background:new 0 0 50 50;" xml:space="preserve">
<style type="text/css">
	.st0{fill:#DA1C5C;}
	.st1{fill:#BA1555;}
	.st2{fill:#991047;}
	.st3{fill:#EE2A7B;}
	.st4{opacity:0.5;}
	.st5{opacity:0.19;}
</style>
<path class="st0" d="M27.4,1.4c-0.8-0.6-1.9-0.6-2.8-0.1C19.7,4.2,4.5,13.5,3.9,13.9s-3.3,4.5-3.5,9.4S1.9,33.6,3,34.5
	s19.1,13.1,19.7,13.4s2.2,0.4,2.9-0.1c0.7-0.4,19.3-11.5,20.8-12.4c1.5-0.9,4-5.7,3.1-11.2s-2.2-8.3-3.1-9.1
	C45.7,14.6,31.9,4.5,27.4,1.4z"/>
<path class="st1" d="M3,34.5c0,0,19.1,9.9,21.2,9.9s22.2-8.9,22.2-8.9S26.7,47.3,25.6,47.9c-1.1,0.6-1.7,0.7-2.9,0.1
	C21.5,47.3,3,34.5,3,34.5z"/>
<path class="st2" d="M24.2,44.4l0,3.9c0,0,0.5,0,1.4-0.5c0.5-0.3,20.8-12.4,20.8-12.4L24.2,44.4z"/>
<path class="st1" d="M41.9,37.5l-16-36.6c0,0,0.8,0,1.5,0.5c1,0.7,18.3,13.2,18.8,13.7c0.5,0.5,0.6,0.4,1,1.2
	c0.4,0.8,2.5,5.5,2.5,9.6c0,4.3-1.3,7.2-2,8.2s-0.7,1.2-1.3,1.5C45.8,35.7,41.9,37.5,41.9,37.5z"/>
<path class="st3" d="M8.1,37c0,0,13.9,7.4,16.2,7.4s17.7-6.9,17.7-6.9S27.8,4.9,26.9,2.6s-0.9-2.4-2.1,0C23.5,5.1,8.1,37,8.1,37z"/>
<g class="st4">
	<path d="M19.6,24.9l-2.2,2l-0.9-1.1l3.3-2.7h1.4V35h-1.6V24.9z"/>
	<path d="M24.9,29c0-0.4,0-0.9,0.1-1.4c0-0.5,0.1-0.9,0.2-1.4c0.1-0.5,0.3-0.9,0.5-1.3c0.2-0.4,0.4-0.8,0.8-1.1
		c0.3-0.3,0.7-0.6,1.1-0.7c0.4-0.2,0.9-0.3,1.5-0.3s1.1,0.1,1.5,0.3c0.4,0.2,0.8,0.4,1.1,0.7c0.3,0.3,0.6,0.7,0.8,1.1
		c0.2,0.4,0.4,0.8,0.5,1.3c0.1,0.5,0.2,0.9,0.2,1.4c0,0.5,0.1,0.9,0.1,1.4c0,0.6-0.1,1.3-0.2,2c-0.1,0.7-0.3,1.4-0.6,2
		c-0.3,0.6-0.7,1.1-1.3,1.5c-0.5,0.4-1.2,0.6-2.1,0.6c-0.8,0-1.5-0.2-2.1-0.6s-1-0.9-1.3-1.5c-0.3-0.6-0.5-1.3-0.6-2
		C25,30.3,24.9,29.6,24.9,29z M26.6,29c0,0.4,0,0.9,0.1,1.4c0.1,0.5,0.2,1.1,0.3,1.6c0.2,0.5,0.4,0.9,0.8,1.3
		c0.3,0.3,0.8,0.5,1.3,0.5s1-0.2,1.3-0.5s0.6-0.8,0.8-1.3c0.2-0.5,0.3-1,0.3-1.6c0-0.5,0.1-1,0.1-1.4c0-0.3,0-0.6,0-0.9
		c0-0.3-0.1-0.7-0.1-1c-0.1-0.4-0.1-0.7-0.3-1c-0.1-0.3-0.3-0.6-0.4-0.9c-0.2-0.3-0.4-0.5-0.7-0.6c-0.3-0.2-0.6-0.2-1-0.2
		c-0.4,0-0.7,0.1-1,0.2c-0.3,0.2-0.5,0.4-0.7,0.6c-0.2,0.3-0.3,0.6-0.4,0.9s-0.2,0.7-0.3,1s-0.1,0.7-0.1,1
		C26.6,28.4,26.6,28.7,26.6,29z"/>
</g>
<g class="st5">
	<path d="M13.2,17.8l-4.2-3.9l1-1l5.5,5.1l-0.9,1L3.8,23.5l-1.3-1.2L13.2,17.8z"/>
</g>
<g class="st5">
	<path d="M43.9,21l-3.5,3.7l-1.2-1.1l-2.3-8.7l1.3-1.4l5.7,5.4l1.2-1.2l1,1L45,19.8l1.9,1.8l-1.1,1.2L43.9,21z M38.5,15.9L38.5,15.9
		l1.8,6.8l2.5-2.7L38.5,15.9z"/>
</g>
</svg>
