<?xml version="1.0" encoding="utf-8"?>
<!-- Generator: Adobe Illustrator 20.1.0, SVG Export Plug-In . SVG Version: 6.00 Build 0)  -->
<svg version="1.1" id="Layer_1" xmlns="http://www.w3.org/2000/svg" xmlns:xlink="http://www.w3.org/1999/xlink" x="0px" y="0px"
	 viewBox="0 0 50 50" style="enable-background:new 0 0 50 50;" xml:space="preserve">
<style type="text/css">
	.st0{fill:#F4CB58;}
	.st1{fill:#E8BD52;}
	.st2{fill:#C69847;}
	.st3{fill:#D1A352;}
	.st4{fill:#DBAF4D;}
	.st5{fill:#E0B04F;}
	.st6{opacity:0.5;}
	.st7{opacity:0.2;}
</style>
<polygon class="st0" points="25.4,42.1 8.8,30.1 15.2,10.6 35.6,10.6 41.9,30.1 "/>
<polygon class="st1" points="25.4,0.5 40,4.4 35.6,10.6 15.2,10.6 10.6,4.5 "/>
<polygon class="st2" points="39.6,44.2 25.5,49.7 25.4,42 41.9,30 49.2,32.3 "/>
<polygon class="st3" points="11.2,44.2 1.6,32.5 8.9,30.1 25.4,42 25.5,49.7 "/>
<polygon class="st4" points="48.4,17.2 49.2,32.3 41.9,30.1 35.6,10.6 40,4.4 "/>
<polygon class="st5" points="2.4,17.2 10.6,4.5 15.2,10.6 8.9,30.1 1.6,32.5 "/>
<g class="st6">
	<path d="M19.5,19.4l-2.6,2.4l-1.1-1.3l3.9-3.3h1.7v14.1h-1.9V19.4z"/>
	<path d="M26.1,29.2l5.7-5.6c0.2-0.2,0.4-0.4,0.6-0.6c0.2-0.2,0.4-0.4,0.5-0.7s0.3-0.5,0.3-0.8c0.1-0.3,0.1-0.5,0.1-0.8
		c0-0.3-0.1-0.7-0.2-0.9s-0.3-0.5-0.5-0.7c-0.2-0.2-0.5-0.3-0.8-0.4c-0.3-0.1-0.6-0.2-0.9-0.2c-0.7,0-1.3,0.2-1.7,0.6
		c-0.5,0.4-0.7,0.9-0.9,1.6l-2.1-0.2c0.1-0.6,0.3-1.2,0.5-1.6c0.3-0.5,0.6-0.8,1-1.1c0.4-0.3,0.9-0.5,1.4-0.7
		c0.5-0.1,1.1-0.2,1.7-0.2s1.2,0.1,1.7,0.2c0.5,0.2,1,0.4,1.4,0.7c0.4,0.3,0.7,0.7,1,1.2c0.2,0.5,0.3,1.1,0.3,1.7
		c0,0.5-0.1,0.9-0.2,1.3c-0.1,0.4-0.3,0.8-0.5,1.1c-0.2,0.4-0.5,0.7-0.8,1c-0.3,0.3-0.6,0.6-0.9,0.9l-4.6,4.5h7.1v1.7h-9.3V29.2z"/>
</g>
<g class="st7">
	<path d="M16.6,39l-2-1.4l-0.9,1.2c0,0,0.1,0,0.2,0.1c0.1,0,0.1,0.1,0.2,0.1c0.1,0,0.1,0.1,0.2,0.1c0.1,0,0.1,0.1,0.2,0.1
		c0.2,0.2,0.4,0.4,0.5,0.6c0.1,0.2,0.2,0.4,0.2,0.7c0,0.2,0,0.5-0.1,0.7c-0.1,0.2-0.2,0.5-0.4,0.7c-0.2,0.2-0.4,0.4-0.6,0.6
		c-0.2,0.1-0.5,0.2-0.7,0.2s-0.5,0-0.8-0.1c-0.3-0.1-0.5-0.2-0.8-0.4c-0.3-0.2-0.6-0.5-0.7-0.9c-0.1-0.4-0.2-0.7,0-1.1l0.8,0.3
		c-0.1,0.3-0.1,0.5,0,0.7c0.1,0.2,0.2,0.4,0.4,0.5c0.1,0.1,0.3,0.2,0.4,0.2s0.3,0,0.4,0c0.1,0,0.3-0.1,0.4-0.2
		c0.1-0.1,0.3-0.2,0.4-0.4c0.3-0.4,0.3-0.7,0.3-1c-0.1-0.3-0.3-0.6-0.7-0.9c-0.1-0.1-0.3-0.2-0.5-0.3c-0.2-0.1-0.4-0.2-0.7-0.2
		l1.9-2.5l2.6,1.9L16.6,39z"/>
</g>
<g class="st7">
	<path d="M6.6,17.7c-0.3,0-0.6,0-0.7,0.1c-0.2,0.1-0.3,0.3-0.4,0.6c-0.1,0.2-0.1,0.3-0.1,0.4c0,0.1,0,0.3,0.1,0.4
		c0.1,0.1,0.1,0.3,0.2,0.4c0.1,0.1,0.2,0.2,0.4,0.2C6.2,20,6.5,20,6.6,20c0.2,0,0.3-0.1,0.5-0.3c0.1-0.1,0.2-0.3,0.3-0.5
		c0.1-0.2,0.2-0.4,0.2-0.5l0.7,0.2c-0.1,0.3-0.2,0.5-0.2,0.7s0,0.4,0,0.5c0,0.1,0.1,0.2,0.2,0.3c0.1,0.1,0.2,0.1,0.4,0.2
		c0.3,0.1,0.6,0.1,0.8,0c0.2-0.1,0.4-0.3,0.5-0.6c0.1-0.2,0.1-0.4,0-0.6c-0.1-0.2-0.2-0.4-0.3-0.6l0.5-0.7c0.3,0.3,0.5,0.6,0.6,1
		c0.1,0.4,0,0.7-0.1,1.1c-0.1,0.2-0.2,0.4-0.3,0.6s-0.3,0.3-0.5,0.5c-0.2,0.1-0.4,0.2-0.6,0.2c-0.2,0-0.5,0-0.7-0.1
		c-0.3-0.1-0.5-0.3-0.7-0.6c-0.2-0.3-0.2-0.6-0.2-0.9l0,0c-0.1,0.2-0.2,0.3-0.3,0.4c-0.1,0.1-0.3,0.2-0.4,0.2
		c-0.2,0-0.3,0.1-0.5,0.1c-0.2,0-0.4,0-0.5-0.1c-0.3-0.1-0.5-0.2-0.7-0.4c-0.2-0.2-0.3-0.4-0.4-0.6c-0.1-0.2-0.1-0.5-0.1-0.7
		c0-0.3,0.1-0.5,0.2-0.8c0.2-0.4,0.4-0.8,0.7-1c0.3-0.3,0.7-0.4,1.2-0.3L6.6,17.7z"/>
</g>
<g class="st7">
	<path d="M25.5,2.7c0.3,0,0.5,0,0.8,0.1c0.2,0.1,0.4,0.2,0.6,0.4c0.2,0.2,0.3,0.4,0.4,0.6c0.1,0.2,0.2,0.5,0.2,0.8
		c0,0.2,0,0.4-0.1,0.5c-0.1,0.2-0.1,0.3-0.2,0.4c-0.1,0.1-0.2,0.2-0.4,0.3C26.6,5.9,26.5,6,26.3,6v0c0.1,0,0.2,0.1,0.3,0.2
		c0.1,0.1,0.2,0.2,0.3,0.3s0.2,0.3,0.2,0.4c0.1,0.2,0.1,0.3,0.1,0.6c0,0.2,0,0.4-0.1,0.6c-0.1,0.2-0.2,0.3-0.4,0.5
		c-0.2,0.1-0.3,0.2-0.6,0.3C25.9,8.9,25.7,9,25.5,9c-0.2,0-0.5,0-0.7-0.1c-0.2-0.1-0.4-0.2-0.6-0.3c-0.2-0.1-0.3-0.3-0.4-0.5
		c-0.1-0.2-0.1-0.4-0.1-0.6c0-0.2,0-0.4,0.1-0.6c0.1-0.2,0.1-0.3,0.2-0.4c0.1-0.1,0.2-0.2,0.3-0.3c0.1-0.1,0.2-0.1,0.3-0.2v0
		c-0.2,0-0.3-0.1-0.5-0.2c-0.1-0.1-0.3-0.2-0.4-0.3c-0.1-0.1-0.2-0.3-0.2-0.4c-0.1-0.2-0.1-0.3-0.1-0.5c0-0.3,0.1-0.5,0.2-0.8
		c0.1-0.2,0.2-0.4,0.4-0.6c0.2-0.2,0.4-0.3,0.6-0.4C25,2.8,25.2,2.7,25.5,2.7z M25.5,3.4c-0.3,0-0.6,0.1-0.8,0.3
		c-0.2,0.2-0.3,0.5-0.3,0.8c0,0.2,0,0.3,0.1,0.5c0.1,0.1,0.1,0.3,0.2,0.4c0.1,0.1,0.2,0.2,0.4,0.2c0.1,0,0.3,0.1,0.4,0.1
		c0.3,0,0.6-0.1,0.8-0.3c0.2-0.2,0.3-0.5,0.3-0.8c0-0.2,0-0.3-0.1-0.5c-0.1-0.1-0.1-0.3-0.2-0.3c-0.1-0.1-0.2-0.2-0.4-0.2
		C25.8,3.5,25.6,3.4,25.5,3.4z M26.4,7.4c0-0.1,0-0.2-0.1-0.3c0-0.1-0.1-0.2-0.2-0.3c-0.1-0.1-0.2-0.2-0.3-0.2s-0.3-0.1-0.4-0.1
		c-0.2,0-0.3,0-0.4,0.1c-0.1,0.1-0.2,0.1-0.3,0.2c-0.1,0.1-0.1,0.2-0.2,0.3c0,0.1-0.1,0.2-0.1,0.4c0,0.3,0.1,0.5,0.3,0.7
		s0.4,0.3,0.7,0.3c0.3,0,0.5-0.1,0.7-0.3C26.3,7.9,26.4,7.6,26.4,7.4z"/>
</g>
<g class="st7">
	<path d="M45.7,20.1l-3-1.6c-0.1-0.1-0.2-0.1-0.3-0.2c-0.1,0-0.2-0.1-0.3-0.1c-0.1,0-0.2,0-0.4,0c-0.1,0-0.2,0-0.4,0.1
		c-0.1,0-0.3,0.1-0.4,0.2c-0.1,0.1-0.2,0.2-0.2,0.3c-0.1,0.1-0.1,0.2-0.1,0.4c0,0.1,0,0.3,0.1,0.4c0.1,0.3,0.2,0.5,0.5,0.6
		c0.2,0.1,0.5,0.2,0.8,0.1l0.2,0.9c-0.3,0-0.5,0-0.7,0c-0.2-0.1-0.4-0.1-0.6-0.3c-0.2-0.1-0.3-0.3-0.5-0.5s-0.2-0.4-0.3-0.7
		c-0.1-0.2-0.1-0.5-0.1-0.7c0-0.2,0-0.5,0.1-0.7c0.1-0.2,0.2-0.4,0.4-0.5c0.2-0.2,0.4-0.3,0.7-0.4c0.2-0.1,0.4-0.1,0.6-0.1
		c0.2,0,0.4,0,0.5,0.1c0.2,0,0.3,0.1,0.5,0.2c0.2,0.1,0.3,0.2,0.5,0.3l2.4,1.3l-0.9-2.9l0.7-0.2l1.2,3.8L45.7,20.1z"/>
</g>
<g class="st7">
	<path d="M33.2,39.8l-0.3,1.5l-0.7-0.2l0.5-2.1l0.6-0.4l3.7,4.8l-0.6,0.5L33.2,39.8z"/>
	<path d="M36.6,39.8c-0.1-0.2-0.3-0.4-0.4-0.6c-0.1-0.2-0.2-0.4-0.3-0.6c-0.1-0.2-0.2-0.4-0.2-0.7c0-0.2-0.1-0.5,0-0.7
		c0-0.2,0.1-0.4,0.2-0.6c0.1-0.2,0.3-0.4,0.5-0.6c0.2-0.2,0.5-0.3,0.7-0.3c0.2-0.1,0.4-0.1,0.7,0c0.2,0,0.4,0.1,0.6,0.2
		s0.4,0.2,0.6,0.4c0.2,0.1,0.4,0.3,0.5,0.5c0.2,0.2,0.3,0.4,0.4,0.5c0.2,0.3,0.4,0.5,0.6,0.9s0.3,0.7,0.4,1c0.1,0.3,0.1,0.7,0,1
		c-0.1,0.3-0.3,0.6-0.6,0.9c-0.3,0.3-0.7,0.4-1,0.4c-0.3,0-0.7-0.1-1-0.2c-0.3-0.2-0.6-0.4-0.9-0.6C37.1,40.3,36.8,40.1,36.6,39.8z
		 M37.3,39.3c0.1,0.2,0.3,0.3,0.5,0.5c0.2,0.2,0.4,0.4,0.6,0.5c0.2,0.1,0.5,0.2,0.7,0.3c0.2,0,0.5,0,0.7-0.2
		c0.2-0.2,0.4-0.4,0.4-0.6c0-0.2,0-0.5-0.1-0.7c-0.1-0.3-0.2-0.5-0.3-0.7c-0.1-0.2-0.3-0.4-0.4-0.6c-0.1-0.1-0.2-0.2-0.3-0.4
		c-0.1-0.1-0.2-0.3-0.4-0.4s-0.3-0.2-0.4-0.3c-0.1-0.1-0.3-0.2-0.5-0.2s-0.3-0.1-0.5,0c-0.2,0-0.3,0.1-0.5,0.2
		c-0.1,0.1-0.3,0.2-0.3,0.4s-0.1,0.3-0.1,0.5c0,0.2,0,0.3,0.1,0.5c0.1,0.2,0.1,0.3,0.2,0.5c0.1,0.2,0.2,0.3,0.3,0.5
		C37.1,39.1,37.2,39.2,37.3,39.3z"/>
</g>
</svg>
