<?xml version="1.0" encoding="utf-8"?>
<!-- Generator: Adobe Illustrator 20.1.0, SVG Export Plug-In . SVG Version: 6.00 Build 0)  -->
<svg version="1.1" id="Layer_1" xmlns="http://www.w3.org/2000/svg" xmlns:xlink="http://www.w3.org/1999/xlink" x="0px" y="0px"
	 viewBox="0 0 50 50" style="enable-background:new 0 0 50 50;" xml:space="preserve">
<style type="text/css">
	.st0{fill:#DA1C5C;}
	.st1{fill:#BA1555;}
	.st2{fill:#991047;}
	.st3{fill:#EE2A7B;}
</style>
<path class="st0" d="M27.4,1.4c-0.8-0.6-1.9-0.6-2.8-0.1C19.7,4.2,4.5,13.5,3.9,13.9s-3.3,4.5-3.5,9.4S1.9,33.6,3,34.5
	s19.1,13.1,19.7,13.4s2.2,0.4,2.9-0.1c0.7-0.4,19.3-11.5,20.8-12.4c1.5-0.9,4-5.7,3.1-11.2s-2.2-8.3-3.1-9.1
	C45.7,14.6,31.9,4.5,27.4,1.4z"/>
<path class="st1" d="M3,34.5c0,0,19.1,9.9,21.2,9.9s22.2-8.9,22.2-8.9S26.7,47.3,25.6,47.9c-1.1,0.6-1.7,0.7-2.9,0.1
	C21.5,47.3,3,34.5,3,34.5z"/>
<path class="st2" d="M24.2,44.4l0,3.9c0,0,0.5,0,1.4-0.5c0.5-0.3,20.8-12.4,20.8-12.4L24.2,44.4z"/>
<path class="st1" d="M41.9,37.5l-16-36.6c0,0,0.8,0,1.5,0.5c1,0.7,18.3,13.2,18.8,13.7c0.5,0.5,0.6,0.4,1,1.2
	c0.4,0.8,2.5,5.5,2.5,9.6c0,4.3-1.3,7.2-2,8.2s-0.7,1.2-1.3,1.5C45.8,35.7,41.9,37.5,41.9,37.5z"/>
<path class="st3" d="M8.1,37c0,0,13.9,7.4,16.2,7.4s17.7-6.9,17.7-6.9S27.8,4.9,26.9,2.6s-0.9-2.4-2.1,0C23.5,5.1,8.1,37,8.1,37z"/>
</svg>
