<?xml version="1.0" encoding="utf-8"?>
<!-- Generator: Adobe Illustrator 20.1.0, SVG Export Plug-In . SVG Version: 6.00 Build 0)  -->
<svg version="1.1" id="Layer_1" xmlns="http://www.w3.org/2000/svg" xmlns:xlink="http://www.w3.org/1999/xlink" x="0px" y="0px"
	 viewBox="0 0 50 50" style="enable-background:new 0 0 50 50;" xml:space="preserve">
<style type="text/css">
	.st0{opacity:0.4;fill:#FFFFFF;}
</style>
<path class="st0" d="M8,8c4.7-4.7,10.4-7.1,17-7.1c6.6,0,12.3,2.4,17,7.1c4.7,4.7,7.1,10.4,7.1,17c0,6.6-2.4,12.3-7.1,17
	c-4.7,4.7-10.4,7.1-17,7.1c-6.6,0-12.3-2.4-17-7.1c-4.7-4.7-7.1-10.4-7.1-17C0.9,18.4,3.2,12.7,8,8z M20.1,37.1l21.7-21.7l-3.4-3.5
	L20.1,30.2l-8.6-8.6L8.1,25L20.1,37.1z"/>
</svg>
