<?xml version="1.0" encoding="utf-8"?>
<!-- Generator: Adobe Illustrator 20.1.0, SVG Export Plug-In . SVG Version: 6.00 Build 0)  -->
<svg version="1.1" id="Layer_1" xmlns="http://www.w3.org/2000/svg" xmlns:xlink="http://www.w3.org/1999/xlink" x="0px" y="0px"
	 viewBox="0 0 50 50" style="enable-background:new 0 0 50 50;" xml:space="preserve">
<style type="text/css">
	.st0{opacity:0.4;fill:#FFFFFF;}
</style>
<path class="st0" d="M43.1,27.4l5.1,4c0.5,0.4,0.6,0.9,0.2,1.6l-4.9,8.4c-0.3,0.5-0.8,0.7-1.5,0.5l-6-2.4c-1.6,1.1-3,1.9-4.1,2.4
	L31,48.2c-0.2,0.7-0.5,1-1.1,1h-9.8c-0.6,0-1-0.3-1.1-1l-0.9-6.4c-1.4-0.6-2.8-1.4-4.1-2.4l-6,2.4c-0.7,0.2-1.2,0.1-1.5-0.5l-5-8.3
	c-0.4-0.7-0.3-1.2,0.2-1.6l5.1-4c-0.1-0.5-0.1-1.3-0.1-2.4s0-1.9,0.1-2.4l-5.1-4c-0.5-0.4-0.6-0.9-0.2-1.6l4.9-8.4
	c0.3-0.5,0.8-0.7,1.5-0.5l6,2.4c1.6-1.1,3-1.9,4.1-2.4l1-6.3c0.2-0.7,0.5-1,1.1-1h9.8c0.6,0,1,0.3,1.1,1l0.9,6.4
	c1.4,0.6,2.8,1.4,4.1,2.4l6-2.4c0.7-0.2,1.2-0.1,1.5,0.5l4.9,8.4c0.4,0.7,0.3,1.2-0.2,1.6l-5.1,4c0.1,0.5,0.1,1.3,0.1,2.4
	C43.2,26.1,43.2,26.9,43.1,27.4z M19,31c1.7,1.7,3.7,2.5,6,2.5s4.4-0.8,6-2.5c1.7-1.7,2.5-3.7,2.5-6c0-2.4-0.8-4.4-2.5-6
	c-1.7-1.7-3.7-2.5-6-2.5s-4.4,0.8-6,2.5c-1.7,1.7-2.5,3.7-2.5,6C16.5,27.4,17.3,29.4,19,31z"/>
</svg>
